<?xml version="1.0" standalone="no"?><!DOCTYPE svg PUBLIC "-//W3C//DTD SVG 1.1//EN" "http://www.w3.org/Graphics/SVG/1.1/DTD/svg11.dtd"><svg t="1593659298271" class="icon" viewBox="0 0 1024 1024" version="1.1" xmlns="http://www.w3.org/2000/svg" p-id="14151" xmlns:xlink="http://www.w3.org/1999/xlink" width="64" height="64"><defs><style type="text/css"></style></defs><path d="M141.937778 80.782222c-33.735111 0-61.155556 27.420444-61.155556 61.041778V874.382222c0 33.735111 27.420444 60.984889 61.155556 60.984889h733.411555c33.735111 0 61.155556-27.306667 61.155556-60.984889V141.824c0-33.735111-27.420444-61.041778-61.155556-61.041778H141.937778zM127.146667 0H890.311111c70.200889 0 127.146667 56.888889 127.146667 127.032889v762.311111c0 70.087111-56.945778 127.032889-127.203556 127.032889H127.203556A127.089778 127.089778 0 0 1 0 889.344v-762.311111C0 56.888889 56.888889 0 127.146667 0z" fill="#e6e6e6" p-id="14152"></path><path d="M300.088889 299.292444H200.078222a41.016889 41.016889 0 0 1-40.903111-40.903111c0-22.471111 18.432-40.903111 40.96-40.903111h99.953778c22.528 0 40.96 18.432 40.96 40.96 0 22.471111-18.432 40.846222-40.96 40.846222z m259.128889 4.551112H459.207111a41.016889 41.016889 0 0 1-40.96-40.903112c0-22.471111 18.432-40.903111 40.96-40.903111H559.217778c22.471111 0 40.903111 18.432 40.903111 40.96 0 22.471111-18.432 40.846222-40.96 40.846223z m259.072 0h-100.010667a41.016889 41.016889 0 0 1-40.903111-40.903112c0-22.471111 18.432-40.903111 40.96-40.903111h99.953778c22.471111 0 40.903111 18.432 40.903111 40.96 0 22.471111-18.432 40.846222-40.96 40.846223zM300.088889 547.043556H200.078222a41.016889 41.016889 0 0 1-40.903111-40.903112c0-22.528 18.432-40.96 40.96-40.96h99.953778c22.528 0 40.96 18.432 40.96 40.96 0 22.471111-18.432 40.96-40.96 40.96z m259.128889 4.551111H459.207111a41.016889 41.016889 0 0 1-40.96-40.96c0-22.471111 18.432-40.846222 40.96-40.846223H559.217778c22.471111 0 40.903111 18.375111 40.903111 40.903112 0 22.471111-18.432 40.903111-40.96 40.903111z m259.072 0h-100.010667a41.016889 41.016889 0 0 1-40.903111-40.96c0-22.471111 18.432-40.846222 40.96-40.846223h99.953778c22.471111 0 40.903111 18.375111 40.903111 40.903112 0 22.471111-18.432 40.903111-40.96 40.903111zM300.088889 794.737778H200.078222a41.016889 41.016889 0 0 1-40.903111-40.846222c0-22.528 18.432-40.96 40.96-40.96h99.953778c22.528 0 40.96 18.432 40.96 40.96 0 22.471111-18.432 40.903111-40.96 40.903111z m259.128889 4.551111H459.207111a41.016889 41.016889 0 0 1-40.96-40.903111c0-22.471111 18.432-40.903111 40.96-40.903111H559.217778c22.471111 0 40.903111 18.432 40.903111 40.96 0 22.471111-18.432 40.903111-40.96 40.903111z m259.072 0h-100.010667a41.016889 41.016889 0 0 1-40.903111-40.903111c0-22.471111 18.432-40.903111 40.96-40.903111h99.953778c22.471111 0 40.903111 18.432 40.903111 40.96 0 22.471111-18.432 40.903111-40.96 40.903111z" fill="#e6e6e6" p-id="14153"></path></svg>