<?xml version="1.0" standalone="no"?><!DOCTYPE svg PUBLIC "-//W3C//DTD SVG 1.1//EN" "http://www.w3.org/Graphics/SVG/1.1/DTD/svg11.dtd"><svg t="1593660784858" class="icon" viewBox="0 0 1024 1024" version="1.1" xmlns="http://www.w3.org/2000/svg" p-id="17060" xmlns:xlink="http://www.w3.org/1999/xlink" width="64" height="64"><defs><style type="text/css"></style></defs><path d="M125.51390058 193.15130126a36.98979612 34.14442818 0 1 0 73.97959351 0 36.98979612 34.14442818 0 1 0-73.97959351 0Z" p-id="17061"></path><path d="M77.14262884 338.59986722h872.85877448c36.65504793 0 73.31009456-27.11469312 73.31009456-67.78673084v-149.13080888c0-33.8096787-29.29056339-67.78673085-73.31009456-67.78673084H77.14262884c-44.01953117 0-73.31009456 33.8096787-73.31009456 67.78673084v149.13080888c0 40.67203903 29.29056339 67.78673085 73.31009456 67.78673084z m0-216.91753972h865.49428993v149.13080888L77.14262884 277.67549671v-155.99316921zM139.23862252 504.46814073c-6.86236033 6.36023611-10.71197667 14.8963438-10.71197798 23.93457441 0 18.74596016 16.40271514 33.8096787 36.65504793 33.80967869 20.2523315 0 36.65504793-15.23109327 36.65504664-33.80967869 0-18.74596016-16.40271514-33.8096787-36.65504664-33.8096787-9.70772956 0-19.08070963 3.51486818-25.94306995 9.87510429z" p-id="17062"></path><path d="M125.51390058 863.15200611a36.98979612 34.14442818 0 1 0 73.97959351 0 36.98979612 34.14442818 0 1 0-73.97959351 0Z" p-id="17063"></path><path d="M69.77814431 671.84278557h369.73059153c22.26082833 0 36.98979612-13.72472064 36.98979612-34.14442688 0-20.58708097-14.72896907-34.14442818-36.98979612-34.14442817l-362.19873227 6.86236032-7.36448452-157.16479107 879.72113478-6.86236032 7.36448454 150.30243075c-22.26082833 0-36.98979612 13.72472064-36.98979611 34.14442817s14.72896907 34.14442818 36.98979611 34.14442687c17.74171303 0 34.64655108-6.36023611 47.19964988-17.90908647 12.55309878-11.54885037 19.4154591-27.28206656 19.41545911-43.51740825v-157.16479107c0-16.40271514-6.86236033-31.96855659-19.41545911-43.51740826-12.55309878-11.54885037-29.45793813-18.07646122-47.19964988-17.90908649H69.77814431c-17.74171303 0-34.64655108 6.36023611-47.19964988 17.90908649-12.55309878 11.54885037-19.4154591 27.28206656-19.4154591 43.51740826v157.16479107c0 41.00678849 29.62531157 68.28885505 66.61510898 68.28885505zM304.60477182 718.20556305H69.77814431c-17.57433829 0-34.31180291 6.36023611-46.69752566 17.74171174-12.38572404 11.38147563-19.24808436 26.94731838-19.24808437 43.18265879v155.99316919c0 33.8096787 29.29056339 67.78673085 65.94561003 67.78673215h212.7331739c21.92607886 0 36.65504793-13.55734591 36.65504793-33.8096787s-7.36448454-33.8096787-29.2905634-33.80967869H77.14262884l-7.36448453-149.1308089h227.46214296c21.92607886 0 36.65504793-13.55734591 36.65504664-33.8096787 0.16737473-20.58708097-7.19710979-34.14442818-29.29056209-34.14442688z" p-id="17064"></path><path d="M920.71084121 779.12993358c0-81.34407804-73.31009456-149.13080889-161.3491582-149.1308089-44.01953117 0-88.03906363 20.2523315-124.69411156 47.36702461-14.72896907-6.86236033-29.29056339-6.86236033-44.01953117-6.86236033-51.3840157 0-95.40354816 33.8096787-109.9651425 81.34407806-47.53439934-0.33474948-91.55393052 22.76295126-115.32113019 60.58962104-23.93457441 37.99404453-23.93457441 84.6915702 0 122.68561471 23.93457441 37.82666979 67.95410558 61.09174526 115.32113019 60.58962235h418.10186457c65.94561004 0 124.69411026-47.36702461 124.69411027-115.15375675 7.36448454-54.0620102-44.01953117-101.42903481-102.76803141-101.42903479z m-14.56159434 155.99316919H488.04738231c-29.29056339 0-58.74850023-27.11469312-58.74850023-54.22938491s29.29056339-54.22938493 58.74850023-54.22938494c7.36448454 0 14.72896907 0 21.92607887 6.86236032 14.72896907 6.86236033 29.29056339 0 36.65504794-6.86236032 7.36448454-6.86236033 14.72896907-20.2523315 7.36448323-33.8096787v-13.55734591c0-27.11469312 44.01953117-40.67203903 58.74850154-20.2523315 7.36448454 6.86236033 21.92607886 13.55734591 29.29056209 6.86236033 14.72896907 0 21.92607886-6.86236033 29.2905634-20.41970753 14.72896907-27.11469312 44.01953117-47.36702461 80.67457911-47.36702461 51.3840157 0 88.03906363 33.8096787 88.03906361 81.34407804 0 6.86236033 0 13.55734591-7.36448452 27.11469312s0 27.11469312 7.36448452 33.80967741c7.36448454 6.86236033 29.29056339 13.55734591 36.65504665 6.69498559 29.29056339-13.55734591 65.94561004 13.55734591 65.94561002 40.67203902 14.8963438 26.94731838-7.19710979 47.36702461-36.4876719 47.36702459z" p-id="17065"></path></svg>