<?xml version="1.0" standalone="no"?><!DOCTYPE svg PUBLIC "-//W3C//DTD SVG 1.1//EN" "http://www.w3.org/Graphics/SVG/1.1/DTD/svg11.dtd"><svg t="1595827031188" class="icon" viewBox="0 0 1024 1024" version="1.1" xmlns="http://www.w3.org/2000/svg" p-id="38768" xmlns:xlink="http://www.w3.org/1999/xlink" width="200" height="200"><defs><style type="text/css"></style></defs><path d="M643.072 438.272c-32.768 0-69.632-20.48-86.016-49.152-20.48-32.768-16.384-69.632 0-98.304-40.96-36.864-86.016-65.536-143.36-77.824-16.384 24.576-49.152 45.056-86.016 45.056-36.864 0-69.632-20.48-86.016-49.152-57.344 16.384-106.496 40.96-143.36 77.824 16.384 28.672 16.384 65.536 0 98.304-20.48 32.768-53.248 49.152-86.016 49.152-8.192 28.672-12.288 53.248-12.288 81.92 0 28.672 4.096 53.248 12.288 77.824 32.768 0 69.632 20.48 86.016 49.152 20.48 32.768 16.384 69.632 0 98.304 40.96 36.864 86.016 65.536 143.36 77.824a99.84 99.84 0 0 1 172.032 0c53.248-16.384 102.4-40.96 143.36-77.824-16.384-28.672-16.384-65.536 0-98.304 20.48-32.768 53.248-49.152 86.016-49.152a257.184 257.184 0 0 0 12.288-77.824c0-24.576-4.096-53.248-12.288-77.824z m-315.392 159.744c-45.056 0-86.016-36.864-86.016-81.92 0-45.056 36.864-81.92 86.016-81.92 49.152 0 86.016 36.864 86.016 81.92 0 45.056-40.96 81.92-86.016 81.92zM1015.808 151.552c-20.48 0-40.96-12.288-53.248-32.768a62.848 62.848 0 0 1 0-65.536C937.984 28.672 909.312 12.288 872.448 0 860.16 20.48 839.68 32.768 819.2 32.768c-20.48 0-45.056-8.192-53.248-28.672-32.768 8.192-65.536 28.672-90.112 53.248 12.288 20.48 12.288 45.056 0 65.536-12.288 20.48-32.768 32.768-53.248 32.768A152.768 152.768 0 0 0 614.4 204.8c0 16.384 4.096 36.864 8.192 53.248 20.48 0 40.96 12.288 53.248 32.768 12.288 20.48 12.288 45.056 0 65.536 24.576 24.576 53.248 40.96 90.112 53.248 8.192-24.576 28.672-36.864 53.248-36.864 24.576 0 45.056 12.288 53.248 32.768 32.768-8.192 65.536-28.672 90.112-53.248a62.848 62.848 0 0 1 0-65.536c12.288-20.48 32.768-32.768 53.248-32.768 4.096-16.384 8.192-32.768 8.192-49.152 0-20.48-4.096-36.864-8.192-53.248zM819.2 258.048c-28.672 0-53.248-24.576-53.248-53.248 0-28.672 24.576-53.248 53.248-53.248 28.672 0 53.248 24.576 53.248 53.248 0 28.672-24.576 53.248-53.248 53.248z m196.608 507.904c-20.48 0-40.96-12.288-53.248-32.768a62.848 62.848 0 0 1 0-65.536c-24.576-24.576-53.248-40.96-90.112-53.248-12.288 20.48-32.768 32.768-53.248 32.768-20.48 0-45.056-12.288-53.248-32.768-32.768 8.192-65.536 28.672-90.112 53.248 12.288 20.48 12.288 45.056 0 65.536-12.288 20.48-32.768 32.768-53.248 32.768-4.096 16.384-8.192 32.768-8.192 53.248 0 20.48 4.096 36.864 8.192 53.248 20.48 0 40.96 12.288 53.248 32.768 12.288 20.48 12.288 45.056 0 65.536 24.576 24.576 53.248 40.96 90.112 53.248 12.288-20.48 32.768-32.768 53.248-32.768 20.48 0 45.056 12.288 53.248 32.768 32.768-8.192 65.536-28.672 90.112-53.248a62.848 62.848 0 0 1 0-65.536c12.288-20.48 32.768-32.768 53.248-32.768 4.096-16.384 8.192-32.768 8.192-53.248 0-20.48-4.096-36.864-8.192-53.248zM819.2 872.448c-28.672 0-53.248-24.576-53.248-53.248 0-28.672 24.576-53.248 53.248-53.248 28.672 0 53.248 24.576 53.248 53.248 0 28.672-24.576 53.248-53.248 53.248z" p-id="38769"></path></svg>