<?xml version="1.0" standalone="no"?><!DOCTYPE svg PUBLIC "-//W3C//DTD SVG 1.1//EN" "http://www.w3.org/Graphics/SVG/1.1/DTD/svg11.dtd"><svg t="1595826586666" class="icon" viewBox="0 0 1024 1024" version="1.1" xmlns="http://www.w3.org/2000/svg" p-id="29459" xmlns:xlink="http://www.w3.org/1999/xlink" width="200" height="200"><defs><style type="text/css"></style></defs><path d="M497.5 956.1c25.7-120.2 120.3-209.4 233.1-209.4S938 835.9 963.7 956.1h-51.4c-23.8-92.2-96.3-159.4-181.8-159.4s-158 67.2-181.8 159.4h-51.2z m88.2-354.4c0-80.1 64.9-145 145-145s145 64.9 145 145-64.9 145-145 145-145-64.9-145-145z m50 0c0 52.4 42.6 95 95 95s95-42.6 95-95-42.6-95-95-95-95 42.7-95 95zM140.4 906.1h258.9v50H90.4v-820h215V67.9h360v68.2h215v275.5h-50V186.1h-165v61.8h-360v-61.8h-165v720z m215-708.2h260v-80h-260v80z m-95 377.9h254.7v-50H260.4v50z m0-150.7h450v-50h-450v50z" fill="" p-id="29460"></path></svg>