<?xml version="1.0" standalone="no"?><!DOCTYPE svg PUBLIC "-//W3C//DTD SVG 1.1//EN" "http://www.w3.org/Graphics/SVG/1.1/DTD/svg11.dtd"><svg t="1595827349553" class="icon" viewBox="0 0 1024 1024" version="1.1" xmlns="http://www.w3.org/2000/svg" p-id="46788" xmlns:xlink="http://www.w3.org/1999/xlink" width="200" height="200"><defs><style type="text/css"></style></defs><path d="M575.765 895.885h-352A95.805 95.805 0 0 1 127.88 800V224c0-25.648 9.93-49.808 28.062-67.943s42.182-28.177 67.823-28.177h576a96.203 96.203 0 0 1 96.12 96.12v352a31.97 31.97 0 1 0 63.94 0V224a160.031 160.031 0 0 0-160.06-160.06h-576A159.702 159.702 0 0 0 63.94 224v576a159.446 159.446 0 0 0 159.825 159.825h352a31.97 31.97 0 1 0 0-63.94z" p-id="46789"></path><path d="M925.377 758.208l-83.585-83.585a118.271 118.271 0 0 0-141.969-19.222 32.15 32.15 0 0 0-3.912-4.75l-45.672-45.676a254.89 254.89 0 0 0 53.768-156.978c0-141.384-114.616-256-256-256S192.001 306.614 192.001 448s114.616 256 256 256a254.89 254.89 0 0 0 156.974-53.761l45.676 45.676a32.15 32.15 0 0 0 4.75 3.912c-25.648 45.108-19.25 103.5 19.222 141.969l83.585 83.584a118.206 118.206 0 0 0 167.169 0c46.163-46.167 46.163-121.013 0-167.172zM522.72 624.952A191.662 191.662 0 0 1 340.7 607.25a192.745 192.745 0 0 1-69.633-84.531 191.662 191.662 0 0 1 17.7-182.02 192.745 192.745 0 0 1 84.532-69.633 191.662 191.662 0 0 1 182.02 17.7 192.745 192.745 0 0 1 69.633 84.532 191.662 191.662 0 0 1-17.701 182.02 192.745 192.745 0 0 1-84.531 69.633z m357.407 255.186a54.208 54.208 0 0 1-76.66 0l-83.591-83.595a54.208 54.208 0 0 1 76.667-76.667l83.584 83.585a54.208 54.208 0 0 1-0.007 76.66z" p-id="46790"></path></svg>