<?xml version="1.0" standalone="no"?><!DOCTYPE svg PUBLIC "-//W3C//DTD SVG 1.1//EN" "http://www.w3.org/Graphics/SVG/1.1/DTD/svg11.dtd"><svg t="1595826764965" class="icon" viewBox="0 0 1024 1024" version="1.1" xmlns="http://www.w3.org/2000/svg" p-id="32578" xmlns:xlink="http://www.w3.org/1999/xlink" width="200" height="200"><defs><style type="text/css"></style></defs><path d="M285.2 670.2c-7.7 0-15.2-2.8-21.1-8.7-11.7-11.7-11.7-30.6 0-42.1L433 450.5c11.7-11.7 30.6-11.7 42.1 0l137.1 137.1 105.5-105.5c11.7-11.7 30.6-11.7 42.1 0 11.7 11.7 11.7 30.6 0 42.1L633.3 650.8c-11.7 11.7-30.6 11.7-42.1 0L454.1 513.7 306.3 661.5c-5.9 5.7-13.4 8.7-21.1 8.7z" p-id="32579"></path><path d="M830.3 919.9H193.7c-38.4 0-69.6-31.2-69.6-69.6V173.7c0-38.4 31.2-69.6 69.6-69.6h636.7c38.4 0 69.6 31.2 69.6 69.6v676.4c-0.1 38.5-31.2 69.8-69.7 69.8zM193.7 163.8c-5.6 0-10 4.4-10 10v676.4c0 5.6 4.4 10 10 10h636.7c5.6 0 10-4.4 10-10V173.7c0-5.6-4.4-10-10-10H193.7z" p-id="32580"></path></svg>