<?xml version="1.0" standalone="no"?><!DOCTYPE svg PUBLIC "-//W3C//DTD SVG 1.1//EN" "http://www.w3.org/Graphics/SVG/1.1/DTD/svg11.dtd"><svg t="1595826622314" class="icon" viewBox="0 0 1024 1024" version="1.1" xmlns="http://www.w3.org/2000/svg" p-id="30233" xmlns:xlink="http://www.w3.org/1999/xlink" width="200" height="200"><defs><style type="text/css"></style></defs><path d="M108.48 909.441V114.044c0-20.114 16.065-36.42 35.882-36.42h665.107c19.817 0 35.883 16.306 35.883 36.42v399.612h55.773V61.143c0.001-22.817-18.496-41.314-41.313-41.314H94.019c-22.817 0-41.314 18.497-41.314 41.314V963.42c0 22.817 18.497 41.314 41.314 41.314h384.968v-58.872H144.362c-19.817 0-35.882-16.306-35.882-36.421z" p-id="30234"></path><path d="M224.597 334.281h504.637c14.912 0 27-12.088 27-27s-12.088-27-27-27H224.597c-14.912 0-27 12.088-27 27s12.088 27 27 27zM224.597 515.281h504.637c14.912 0 27-12.088 27-27s-12.088-27-27-27H224.597c-14.912 0-27 12.088-27 27s12.088 27 27 27zM226.296 696.281h504.637c14.912 0 27-12.088 27-27s-12.088-27-27-27H226.296c-14.912 0-27 12.088-27 27s12.088 27 27 27z" p-id="30235"></path><path d="M964.387 601.815c-10.544-10.544-27.64-10.544-38.184 0L588.775 939.243 385.284 735.752c-10.544-10.544-27.64-10.544-38.184 0-10.544 10.544-10.544 27.64 0 38.184l219.161 219.161 2 2 4.844 4.844c10.524 7.297 25.075 6.266 34.45-3.11l19.404-19.404 337.428-337.428c10.544-10.545 10.544-27.64 0-38.184z" p-id="30236"></path></svg>