<?xml version="1.0" standalone="no"?><!DOCTYPE svg PUBLIC "-//W3C//DTD SVG 1.1//EN" "http://www.w3.org/Graphics/SVG/1.1/DTD/svg11.dtd"><svg t="1595825476150" class="icon" viewBox="0 0 1024 1024" version="1.1" xmlns="http://www.w3.org/2000/svg" p-id="4882" xmlns:xlink="http://www.w3.org/1999/xlink" width="200" height="200"><defs><style type="text/css"></style></defs><path d="M437.174 478.374c21.773 2.66 44.452 4.067 67.752 4.067 23.299 0 45.977-1.407 67.752-4.067 130.627-15.967 228.623-77.096 232.139-150.656 0.068-1.361 0.104-2.727 0.104-4.097 0-87.715-134.314-158.82-299.994-158.82-165.688 0-299.994 71.105-299.994 158.82 0 1.37 0.033 2.735 0.094 4.097 3.524 73.56 101.52 134.689 232.147 150.656z" fill="#040000" p-id="4883"></path><path d="M450.287 649.668c0-5.318 0.424-13.48 5.739-13.48l11.348-27.177 10.591-25.63c-3.73-3.734 0.137-5.98 3.869-9.707l25.969-25.971c-0.965 0.006-1.912 0.033-2.877 0.033-4.067 0-8.1-0.054-12.123-0.14-0.639-0.013-1.268-0.022-1.905-0.036a566.716 566.716 0 0 1-11.45-0.399c-0.725-0.032-1.439-0.067-2.164-0.102-3.834-0.185-7.65-0.405-11.434-0.667-0.465-0.028-0.932-0.067-1.387-0.1a540.19 540.19 0 0 1-11.264-0.918c-0.283-0.029-0.576-0.047-0.861-0.075a554.29 554.29 0 0 1-11.355-1.19c-0.621-0.075-1.24-0.143-1.861-0.219-3.68-0.434-7.324-0.906-10.952-1.412-0.577-0.08-1.146-0.162-1.723-0.25-3.748-0.534-7.472-1.1-11.149-1.708-0.121-0.02-0.232-0.039-0.346-0.061a495.943 495.943 0 0 1-11.055-1.969c-0.354-0.065-0.707-0.13-1.068-0.198a480.936 480.936 0 0 1-10.643-2.17c-0.517-0.109-1.033-0.222-1.551-0.334a491.795 491.795 0 0 1-10.443-2.396c-0.335-0.084-0.67-0.169-1.016-0.252a443.138 443.138 0 0 1-21.042-5.698l-0.999-0.295a395.433 395.433 0 0 1-9.85-3.094c-0.371-0.12-0.74-0.245-1.111-0.368a400.709 400.709 0 0 1-9.771-3.365c-0.086-0.029-0.164-0.063-0.25-0.092a393.355 393.355 0 0 1-9.891-3.723c-0.035-0.018-0.07-0.029-0.104-0.043a331.242 331.242 0 0 1-9.272-3.807c-0.171-0.07-0.353-0.216-0.524-0.216h0.016c-59.842-24.705-100.684-61.765-109.594-105.882h-1.852v105.88c0 77.829 105.776 142.538 245.355 156.146v-18.915zM811.959 653.809h-55.301l39.076-39.068c2.758-2.764 2.758-7.285 0-10.042l-45.262-45.261c-2.768-2.762-7.273-2.762-10.039 0l-39.076 39.072v-55.299a7.106 7.106 0 0 0-7.109-7.113h-64.004c-3.929 0-7.1 3.18-7.1 7.113v55.299l-39.076-39.072c-2.758-2.762-7.271-2.762-10.038 0l-45.255 45.261c-2.766 2.757-2.766 7.278 0 10.042l39.059 39.068h-55.291a7.1 7.1 0 0 0-7.109 7.113v63.997a7.098 7.098 0 0 0 7.109 7.11h55.291l-39.059 39.074c-2.766 2.758-2.766 7.276 0 10.036l45.255 45.263c2.767 2.76 7.28 2.76 10.038 0l39.076-39.066v55.295a7.094 7.094 0 0 0 7.1 7.111h64.004a7.102 7.102 0 0 0 7.109-7.111v-55.295l39.076 39.066c2.766 2.76 7.271 2.76 10.039 0l45.262-45.263c2.758-2.76 2.758-7.278 0-10.036l-39.076-39.074h55.301a7.099 7.099 0 0 0 7.109-7.11v-63.997a7.1 7.1 0 0 0-7.109-7.113zM662.213 757.613c-35.689 0-64.65-28.961-64.65-64.646 0-35.695 28.961-64.652 64.65-64.652 35.682 0 64.649 28.957 64.649 64.652 0 35.685-28.967 64.646-64.649 64.646zM481.834 812.162c-3.732-3.729-9.91-9.837-6.18-13.564l-16.087-35.811-5.858-17.005c-5.316 0-3.422-4.293-3.422-9.611v-3.151c-3.119-0.304-6.221-0.62-9.305-0.974l-1.861-0.22c-3.68-0.436-7.324-0.905-10.952-1.409-0.577-0.082-1.146-0.168-1.723-0.25a521.924 521.924 0 0 1-11.159-1.71c-0.111-0.022-0.223-0.038-0.336-0.056-3.713-0.621-7.4-1.284-11.055-1.974-0.354-0.069-0.715-0.129-1.068-0.198a486.788 486.788 0 0 1-10.643-2.168c-0.525-0.115-1.042-0.223-1.559-0.34a446.735 446.735 0 0 1-10.436-2.396c-0.344-0.082-0.68-0.163-1.016-0.253a440.575 440.575 0 0 1-21.042-5.692c-0.336-0.103-0.672-0.198-0.999-0.297a401.786 401.786 0 0 1-9.85-3.089c-0.371-0.13-0.74-0.25-1.111-0.375a383.956 383.956 0 0 1-9.771-3.365c-0.086-0.029-0.164-0.061-0.25-0.094a378.391 378.391 0 0 1-9.891-3.723l-0.112-0.043c-3.136-1.232-6.222-2.064-9.264-3.361-0.171-0.068-0.345-0.672-0.517-0.658-59.842-26.471-100.676-60.881-109.586-106.76h-1.852v106.764c0 87.712 134.306 158.82 299.994 158.82 7.884 0 15.682-0.211 23.42-0.527l-46.509-46.51z" fill="#040000" p-id="4884"></path></svg>