<?xml version="1.0" standalone="no"?><!DOCTYPE svg PUBLIC "-//W3C//DTD SVG 1.1//EN" "http://www.w3.org/Graphics/SVG/1.1/DTD/svg11.dtd"><svg t="1593668115866" class="icon" viewBox="0 0 1024 1024" version="1.1" xmlns="http://www.w3.org/2000/svg" p-id="2259" width="128" height="128" xmlns:xlink="http://www.w3.org/1999/xlink"><defs><style type="text/css"></style></defs><path d="M482.304 955.904c25.6-120.32 120.32-209.408 232.96-209.408s207.36 89.088 232.96 209.408h-51.2c-23.552-92.16-96.256-159.232-181.76-159.232s-158.208 67.072-181.76 159.232h-51.2z m88.576-327.168c-7.168-89.6 67.072-163.328 156.16-156.16 70.144 5.632 127.488 62.464 132.608 132.608 7.168 89.6-67.072 163.328-156.16 156.16-70.144-5.12-126.976-62.464-132.608-132.608z m49.664-11.776c0 55.808 48.64 100.864 105.984 94.208 43.52-4.608 78.848-39.936 83.456-83.456 6.144-57.344-38.4-105.984-94.208-105.984-52.736 0.512-95.232 43.008-95.232 95.232zM169.472 906.24h204.8c13.824 0 25.088 11.264 25.088 25.088s-11.264 25.088-25.088 25.088H119.296c-15.872 0-29.184-12.8-29.184-29.184V165.376c0-15.872 12.8-29.184 29.184-29.184h185.856v-38.4c0-16.384 13.312-29.696 29.696-29.696h301.056c15.872 0 29.184 12.8 29.184 29.184v39.424h185.856c15.872 0 29.184 12.8 29.184 29.184v221.696c0 13.824-11.264 25.088-25.088 25.088s-25.088-11.264-25.088-25.088V215.04c0-15.872-12.8-29.184-29.184-29.184H665.6v32.768c0 15.872-12.8 29.184-29.184 29.184h-302.08c-15.872 0-29.184-12.8-29.184-29.184v-32.768H169.472c-15.872 0-29.184 12.8-29.184 29.184v662.016c0 15.872 13.312 29.184 29.184 29.184zM355.328 198.144h260.096V117.76H355.328v80.384z m-94.72 377.856h254.464v-50.176H260.608v50.176z m0-151.04h450.048v-50.176H260.608V424.96z" p-id="2260"></path><path d="M374.272 961.536H119.296c-18.944 0-34.304-15.36-34.304-34.304V165.376c0-18.944 15.36-34.304 34.304-34.304h180.736v-33.28c0-18.944 15.872-34.816 34.816-34.816h301.056c18.944 0 34.304 15.36 34.304 34.304v34.304h180.736c18.944 0 34.304 15.36 34.304 34.304v221.696c0 16.896-13.312 30.208-30.208 30.208s-30.208-13.312-30.208-30.208V215.04c0-13.312-10.752-24.064-24.064-24.064H670.72v27.648c0 18.944-15.36 34.304-34.304 34.304h-302.08c-18.944 0-34.304-15.36-34.304-34.304v-27.648H169.472c-13.312 0-24.064 10.752-24.064 24.064v662.016c0 12.8 11.264 24.064 24.064 24.064h204.8c16.896 0 30.208 13.312 30.208 30.208 0 16.896-13.312 30.208-30.208 30.208zM119.296 141.312c-13.312 0-24.064 10.752-24.064 24.064v761.856c0 13.312 10.752 24.064 24.064 24.064h254.976c11.264 0 19.968-8.704 19.968-19.968s-8.704-19.968-19.968-19.968h-204.8c-18.432 0-34.304-15.872-34.304-34.304V215.04c0-18.944 15.36-34.304 34.304-34.304h140.8v37.888c0 13.312 10.752 24.064 24.064 24.064h302.08c13.312 0 24.064-10.752 24.064-24.064v-37.888h140.288c18.944 0 34.304 15.36 34.304 34.304v172.544c0 11.264 9.216 19.968 19.968 19.968s19.968-8.704 19.968-19.968V165.888c0-13.312-10.752-24.064-24.064-24.064h-190.976V97.28c0-13.312-10.752-24.064-24.064-24.064H334.848c-13.312 0-24.576 11.264-24.576 24.576v43.52H119.296z m835.072 819.712h-61.44l-1.024-4.096c-23.552-91.648-96.256-155.136-176.64-155.136-80.896 0-153.6 64-176.64 155.136l-1.024 4.096H476.16l1.536-6.144c21.504-100.352 88.064-176.64 171.52-203.264-46.08-22.528-78.848-69.12-83.456-122.368-3.584-44.032 12.288-87.04 43.52-118.272 31.232-31.232 74.24-47.104 118.272-43.52 73.216 5.632 132.096 65.024 137.216 137.216 3.584 44.032-12.288 87.04-43.52 118.272-11.776 11.776-25.088 21.504-39.936 28.672 83.968 26.624 150.528 102.912 172.032 203.264l1.024 6.144z m-53.248-10.24h40.96c-23.04-98.304-91.136-171.52-175.616-193.024-19.968 7.168-41.472 10.24-63.488 8.192-13.824-1.024-26.624-4.096-38.912-8.192-83.968 21.504-152.064 94.72-175.104 192.512h40.96c25.6-94.208 101.376-159.232 185.856-159.232 83.968 0.512 159.744 65.536 185.344 159.744z m-215.04-197.12c5.632 1.024 11.776 2.048 17.92 2.56 13.824 1.024 27.136 0 40.448-2.56-19.456-2.56-39.424-2.56-58.368 0z m-110.08-125.44c4.096 54.272 39.936 100.352 88.576 118.784 32.768-7.68 68.608-7.68 101.376 0 17.92-7.168 34.304-17.408 48.128-31.232 29.184-29.184 43.52-69.12 40.448-110.08-5.12-67.584-59.904-122.368-128-128-40.96-3.072-81.408 11.264-110.08 40.448-29.184 28.672-43.52 69.12-40.448 110.08z m139.264 88.576c-24.576 0-47.616-8.704-66.048-25.088-21.504-18.944-33.792-46.08-33.792-74.752 0-54.784 45.056-99.84 100.352-100.352 28.16 0 55.296 12.288 74.24 33.28 18.944 20.992 28.16 49.664 25.088 78.336-5.12 46.08-41.984 82.944-88.064 88.064-4.096 0.512-8.192 0.512-11.776 0.512z m0.512-189.952c-49.664 0.512-90.112 40.96-90.112 90.112 0 25.6 10.752 50.176 30.208 67.072 19.456 17.408 44.032 25.088 70.144 22.016 41.472-4.608 74.752-37.376 78.848-78.848 2.56-26.112-5.12-51.2-22.528-70.656-16.896-18.944-41.472-29.696-66.56-29.696z m-195.584 54.272H255.488v-60.416h264.704v60.416z m-254.464-10.24h244.224v-39.936H265.728v39.936zM715.776 430.08H255.488V369.664h460.288V430.08z m-450.048-10.24h439.808v-39.936H265.728V419.84z m354.816-216.576H350.208V112.64h270.336v90.624z m-260.096-10.24h249.856V122.88H360.448v70.144z" p-id="2261"></path></svg>