<?xml version="1.0" standalone="no"?><!DOCTYPE svg PUBLIC "-//W3C//DTD SVG 1.1//EN" "http://www.w3.org/Graphics/SVG/1.1/DTD/svg11.dtd"><svg t="1596100447513" class="icon" viewBox="0 0 1024 1024" version="1.1" xmlns="http://www.w3.org/2000/svg" p-id="2611" xmlns:xlink="http://www.w3.org/1999/xlink" width="128" height="128"><defs><style type="text/css"></style></defs><path d="M821.01 900.335H203.06c-71.954 0-117.249-15.394-138.48-47.07a69.052 69.052 0 0 1-7.1-62.669l3.38-5.939 107.417-140.459V466.432c0-287.369 278.87-341.845 281.669-342.357l4.71-0.444 119.364 0.444c2.833 0.512 281.669 54.954 281.669 342.357v177.766l110.865 146.398c1.365 3.345 12.663 33.075-7.1 62.67-21.231 31.675-66.492 47.069-138.445 47.069z m-715.811-87.928a17.135 17.135 0 0 0 2.97 12.39c5.051 7.066 24.405 23.485 94.89 23.485h617.95c70.485 0 89.839-16.384 94.857-23.484a17.203 17.203 0 0 0 2.9-12.459l-115.13-150.528V466.432c0-234.803-211.354-285.491-236.818-290.714H457.216c-25.19 5.291-236.885 56.798-236.885 290.714v195.38L105.199 812.406zM603.17 156.74h-52.053V91.136a39.117 39.117 0 0 0-78.166 0v65.604h-52.053V91.136A91.238 91.238 0 0 1 512.034 0a91.238 91.238 0 0 1 91.136 91.136v65.604zM512.034 1024c-102.468 0-176.81-68.13-176.81-162.065h52.087c0 64.785 51.268 110.012 124.723 110.012 73.42 0 124.723-45.193 124.723-110.012h52.054C688.845 955.802 614.468 1024 512.034 1024z" p-id="2612"></path></svg>