<?xml version="1.0" standalone="no"?><!DOCTYPE svg PUBLIC "-//W3C//DTD SVG 1.1//EN" "http://www.w3.org/Graphics/SVG/1.1/DTD/svg11.dtd"><svg t="1593659656014" class="icon" viewBox="0 0 1024 1024" version="1.1" xmlns="http://www.w3.org/2000/svg" p-id="15493" xmlns:xlink="http://www.w3.org/1999/xlink" width="64" height="64"><defs><style type="text/css"></style></defs><path d="M287.5 565c-21.25 0-38.75 17.5-38.75 38.75s17.5 38.75 38.75 38.75 38.75-17.5 38.75-38.75S308.75 565 287.5 565z m0 162.5c-21.25 0-38.75 17.5-38.75 38.75S266.25 805 287.5 805s38.75-17.5 38.75-38.75-17.5-38.75-38.75-38.75z m0-323.75c-21.25 0-38.75 17.5-38.75 38.75s17.5 38.75 38.75 38.75 38.75-17.5 38.75-38.75c0-22.5-17.5-38.75-38.75-38.75zM910 161.25H805V140c0-12.5-10-22.5-22.5-22.5H658.75c-6.25-27.5-20-51.25-40-71.25-27.5-27.5-65-45-107.5-45-41.25 0-78.75 17.5-106.25 45-18.75 18.75-33.75 42.5-40 71.25H242.5c-12.5 0-23.75 10-23.75 22.5v21.25H115c-21.25 0-38.75 17.5-38.75 38.75v785c0 21.25 17.5 38.75 38.75 38.75h795c21.25 0 37.5-17.5 37.5-38.75V200c0-22.5-16.25-38.75-37.5-38.75zM450 90c18.75-18.75 33.75-31.25 62.5-31.25S556.25 70 575 90c10 10 7.5 12.5 12.5 27.5H436.25c6.25-15 2.5-16.25 13.75-27.5m-172.5 85h470v50h-470m593.75 720H152.5V237.5h66.25v21.25c0 12.5 10 22.5 23.75 22.5h540c12.5 0 22.5-10 22.5-22.5V237.5h67.5V945h-1.25zM735 406.25H402.5c-12.5 0-22.5 22.5-22.5 35s10 35 22.5 35H735c12.5 0 23.75-22.5 23.75-35-1.25-12.5-11.25-35-23.75-35z m0 325H402.5c-12.5 0-22.5 22.5-22.5 35S390 800 402.5 800H735c12.5 0 23.75-21.25 23.75-33.75-1.25-13.75-11.25-35-23.75-35z m0-162.5H402.5c-12.5 0-22.5 21.25-22.5 35 0 12.5 10 35 22.5 35H735c12.5 0 23.75-21.25 23.75-35-1.25-12.5-11.25-35-23.75-35z" fill="" p-id="15494"></path></svg>