<?xml version="1.0" standalone="no"?><!DOCTYPE svg PUBLIC "-//W3C//DTD SVG 1.1//EN" "http://www.w3.org/Graphics/SVG/1.1/DTD/svg11.dtd"><svg t="1593659208113" class="icon" viewBox="0 0 1025 1024" version="1.1" xmlns="http://www.w3.org/2000/svg" p-id="13389" xmlns:xlink="http://www.w3.org/1999/xlink" width="64.0625" height="64"><defs><style type="text/css"></style></defs><path d="M880.864 944H143.104A143.296 143.296 0 0 1 0 800.864V223.104A143.264 143.264 0 0 1 143.104 80H216a48 48 0 1 1 0 96H143.104C117.152 176 96 197.152 96 223.104v577.76c0 26.016 21.152 47.136 47.104 47.136h737.76c26.016 0 47.136-21.12 47.136-47.136v-262.496a48 48 0 1 1 96 0v262.496a143.328 143.328 0 0 1-143.136 143.136z" p-id="13390"></path><path d="M496 656c-12.288 0-24.576-4.672-33.952-14.048l-240-240A48 48 0 1 1 289.92 334.08l206.048 206.048 446.08-446.08A48 48 0 1 1 1009.92 161.92l-480 480c-9.344 9.408-21.632 14.08-33.92 14.08z" p-id="13391"></path></svg>