<?xml version="1.0" standalone="no"?><!DOCTYPE svg PUBLIC "-//W3C//DTD SVG 1.1//EN" "http://www.w3.org/Graphics/SVG/1.1/DTD/svg11.dtd"><svg t="1593659127337" class="icon" viewBox="0 0 1024 1024" version="1.1" xmlns="http://www.w3.org/2000/svg" p-id="12498" xmlns:xlink="http://www.w3.org/1999/xlink" width="64" height="64"><defs><style type="text/css"></style></defs><path d="M465.125 0.001a465.023 465.023 0 1 0 294.4 825.023l3.903-3.328 190.016 190.016A41.6 41.6 0 0 0 982.5 1024a40.576 40.576 0 0 0 29.056-12.288 41.472 41.472 0 0 0 0-58.688L821.54 763.008l3.328-3.904A464.703 464.703 0 0 0 464.933 0.065zM847.46 465.025a379.84 379.84 0 0 1-112.32 269.951 384.768 384.768 0 0 1-121.6 82.176 380.352 380.352 0 0 1-418.623-82.176 388.096 388.096 0 0 1-82.176-121.6 380.352 380.352 0 0 1 82.176-418.623 388.16 388.16 0 0 1 121.6-82.176 380.352 380.352 0 0 1 418.624 82.176 388.16 388.16 0 0 1 82.175 121.6 378.176 378.176 0 0 1 30.144 148.672z" p-id="12499" fill="#c4cfdc"></path></svg>